<svg xmlns="http://www.w3.org/2000/svg" xmlns:xlink="http://www.w3.org/1999/xlink" width="500" zoomAndPan="magnify" viewBox="0 0 375 374.999991" height="500" preserveAspectRatio="xMidYMid meet" version="1.0"><defs><clipPath id="4d952b2806"><path d="M 99 106 L 263 106 L 263 269.210938 L 99 269.210938 Z M 99 106 " clip-rule="nonzero"/></clipPath></defs><g clip-path="url(#4d952b2806)"><path fill="#f5f2ed" d="M 107.089844 269.273438 C 105.210938 269.273438 103.339844 268.558594 101.90625 267.128906 C 99.046875 264.265625 99.046875 259.628906 101.90625 256.765625 L 250.105469 108.566406 C 252.96875 105.707031 257.605469 105.707031 260.46875 108.566406 C 263.332031 111.429688 263.332031 116.070312 260.46875 118.929688 L 112.269531 267.128906 C 110.839844 268.558594 108.964844 269.273438 107.089844 269.273438 " fill-opacity="1" fill-rule="nonzero"/><path fill="#f5f2ed" d="M 255.289062 269.273438 C 253.414062 269.273438 251.539062 268.558594 250.109375 267.128906 L 101.90625 118.929688 C 99.046875 116.070312 99.046875 111.429688 101.90625 108.566406 C 104.769531 105.707031 109.410156 105.707031 112.269531 108.566406 L 260.472656 256.765625 C 263.332031 259.628906 263.332031 264.265625 260.472656 267.128906 C 259.039062 268.558594 257.164062 269.273438 255.289062 269.273438 " fill-opacity="1" fill-rule="nonzero"/></g></svg>