<svg width="50" height="53" viewBox="0 0 50 53" fill="none" xmlns="http://www.w3.org/2000/svg">
<rect width="50" height="53" fill="#F5F5F5"/>
<g id="PROJECTS - ACTIVE" clip-path="url(#clip0_0_1)">
<rect width="1440" height="1024" transform="translate(-56 -591)" fill="#F5F2ED"/>
<g id="Untitled design (3) 2">
<g id="Clip path group">
<mask id="mask0_0_1" style="mask-type:luminance" maskUnits="userSpaceOnUse" x="3" y="2" width="44" height="47">
<g id="afe8c57fec">
<path id="Vector" d="M3.16992 2.50195H46.2699V48.1946H3.16992V2.50195Z" fill="white"/>
</g>
</mask>
<g mask="url(#mask0_0_1)">
<g id="Group">
<path id="Vector_2" d="M5.788 16.463C7.47133 16.2869 9.15258 16.0937 10.8375 15.9457C11.3422 15.9015 11.325 15.705 11.2026 15.2838C10.6239 13.2963 10.0755 11.2994 9.48279 9.18545C11.062 9.68122 12.5317 10.1488 14.0052 10.6015C14.5745 10.776 15.3094 11.2121 15.6823 10.9902C16.0583 10.7661 15.9114 9.8485 15.9771 9.23183C16.151 7.6076 16.3245 5.98282 16.5104 4.24762C18.0859 5.58918 19.5989 6.84296 21.0687 8.14974C21.5104 8.54227 21.6817 8.53455 21.9552 7.97749C22.8437 6.17273 23.7833 4.39723 24.7567 2.50635C25.1755 3.3008 25.5609 4.02568 25.9401 4.75388C26.5359 5.89945 27.1375 7.04171 27.7125 8.20053C27.8828 8.54338 27.9812 8.55111 28.2666 8.30377C29.8094 6.96166 31.3755 5.64881 33.0333 4.24155C33.1177 4.98741 33.1974 5.64163 33.2635 6.2975C33.4099 7.75169 33.5661 9.20533 33.6791 10.6623C33.7151 11.1227 33.8536 11.11 34.2062 10.9979C36.1135 10.3923 38.0276 9.81759 40.0338 9.20422C39.6557 10.5789 39.2974 11.8708 38.9432 13.1654C38.7646 13.8185 38.6557 14.502 38.4005 15.1187C38.0896 15.8695 38.4172 15.9181 38.9911 15.9728C40.8635 16.1522 42.7307 16.3841 44.7172 16.6088C44.0104 17.5412 43.35 18.4157 42.688 19.2886C42.1067 20.0543 41.5401 20.8355 40.9344 21.5786C40.6526 21.9248 40.6911 22.0799 41.0646 22.2914C42.7224 23.2288 44.3672 24.1927 46.0156 25.1489C46.1125 25.2058 46.2573 25.2075 46.275 25.4079C44.5422 26.4165 42.8078 27.4484 41.0495 28.4333C40.664 28.6491 40.6291 28.7546 40.9057 29.1079C42.1588 30.7167 43.3864 32.3476 44.7088 34.0839C43.2682 34.2572 41.9359 34.4206 40.6052 34.5774C39.989 34.6497 39.3729 34.7221 38.7562 34.7756C38.3458 34.8115 38.1963 34.9125 38.3453 35.4188C38.9291 37.4085 39.4583 39.4164 40.0359 41.5221C37.9041 40.8601 35.8463 40.2219 33.726 39.5627C33.5005 41.8611 33.2823 44.0876 33.0599 46.3589C32.4823 46.2711 32.2604 45.5722 31.7041 45.4949C31.4307 45.364 31.2302 45.1233 30.9797 44.9571C30.1344 44.2979 29.3458 43.5637 28.5344 42.862C28.0974 42.4833 27.8526 42.5539 27.6114 43.0679C27.0073 44.3565 26.3187 45.597 25.6828 46.8673C25.5713 47.0904 25.4692 47.3195 25.3401 47.5315C24.8916 48.268 24.6484 48.2845 24.2364 47.5431C23.4401 46.1082 22.7208 44.627 21.9672 43.1662C21.587 42.4291 21.5786 42.4109 20.9442 42.9603C19.7448 43.9976 18.5109 44.9908 17.3239 46.0447C17.1088 46.2363 16.8708 46.5068 16.5739 46.397C16.2323 46.27 16.2484 45.8835 16.2156 45.5567C16.0489 43.8778 15.8666 42.2011 15.6932 40.5234C15.6344 39.9536 15.4198 39.8691 14.9442 40.027C13.3979 40.5394 11.8427 41.0235 10.2812 41.4818C9.43071 41.7313 9.31248 41.617 9.54008 40.7265C9.95675 39.0951 10.4349 37.4819 10.8724 35.8566C11.0995 35.0086 11.0942 35.0202 10.2302 34.928C8.78435 34.7745 7.34269 34.5923 5.89946 34.4179C5.56352 34.377 5.08383 34.4543 4.93592 34.0651C4.75987 33.6041 5.18956 33.2999 5.43383 32.9747C6.34008 31.7717 7.26248 30.5825 8.17342 29.3834C8.5505 28.8871 8.47394 28.6464 7.97185 28.351C6.57498 27.5284 5.15415 26.7577 3.76665 25.9224C3.5281 25.7783 3.17237 25.701 3.18904 25.3328C3.20623 24.9767 3.55831 24.9044 3.80154 24.7675C5.213 23.9791 6.59112 23.1228 8.00102 22.3311C8.47915 22.0622 8.54477 21.8431 8.18644 21.3655C7.238 20.1012 6.25415 18.8662 5.31821 17.592C5.09529 17.2889 4.75258 17.0134 4.9255 16.5353C5.20102 16.357 5.50727 16.5823 5.788 16.463Z" fill="#955F3D"/>
</g>
</g>
</g>
</g>
</g>
<defs>
<clipPath id="clip0_0_1">
<rect width="1440" height="1024" fill="white" transform="translate(-56 -591)"/>
</clipPath>
</defs>
</svg>
