<svg xmlns="http://www.w3.org/2000/svg" xmlns:xlink="http://www.w3.org/1999/xlink" width="500" zoomAndPan="magnify" viewBox="0 0 375 374.999991" height="500" preserveAspectRatio="xMidYMid meet" version="1.0"><defs><clipPath id="9af88f24bb"><path d="M 90.953125 90.953125 L 284.046875 90.953125 L 284.046875 284.046875 L 90.953125 284.046875 Z M 90.953125 90.953125 " clip-rule="nonzero"/></clipPath><clipPath id="c7026f047a"><path d="M 187.5 90.953125 L 201.753906 111.753906 L 222.527344 97.527344 L 228.335938 122.097656 L 252.824219 116.367188 L 249.402344 141.382812 L 274.296875 144.925781 L 262.109375 167.011719 L 284.046875 179.34375 L 264.738281 195.515625 L 280.761719 214.976562 L 256.9375 223.054688 L 264.878906 247.011719 L 239.757812 245.898438 L 238.542969 271.121094 L 215.519531 260.96875 L 205.316406 284.046875 L 187.5 266.230469 L 169.683594 284.046875 L 159.480469 260.96875 L 136.457031 271.121094 L 135.242188 245.898438 L 110.125 247.011719 L 118.0625 223.054688 L 94.238281 214.976562 L 110.261719 195.515625 L 90.953125 179.34375 L 112.890625 167.011719 L 100.703125 144.925781 L 125.597656 141.382812 L 122.175781 116.367188 L 146.664062 122.097656 L 152.472656 97.527344 L 173.246094 111.753906 Z M 187.5 90.953125 " clip-rule="nonzero"/></clipPath></defs><g clip-path="url(#9af88f24bb)"><g clip-path="url(#c7026f047a)"><path fill="#b9ff66" d="M 90.953125 90.953125 L 284.046875 90.953125 L 284.046875 284.046875 L 90.953125 284.046875 Z M 90.953125 90.953125 " fill-opacity="1" fill-rule="nonzero"/></g></g></svg>